<?xml version="1.0" standalone="no"?>
<!DOCTYPE svg PUBLIC "-//W3C//DTD SVG 20010904//EN"
 "http://www.w3.org/TR/2001/REC-SVG-20010904/DTD/svg10.dtd">
<svg version="1.0" xmlns="http://www.w3.org/2000/svg"
 width="700.000000pt" height="700.000000pt" viewBox="0 0 700.000000 700.000000"
 preserveAspectRatio="xMidYMid meet">
<metadata>
Created by potrace 1.14, written by Peter Selinger 2001-2017
</metadata>
<g transform="translate(0.000000,700.000000) scale(0.100000,-0.100000)"
fill="#000000" stroke="none">
<path d="M1520 6984 c-801 -109 -1417 -741 -1510 -1549 -14 -124 -14 -3746 0
-3870 70 -607 429 -1118 975 -1386 193 -94 368 -145 587 -168 128 -14 3724
-15 3856 -1 219 23 408 79 607 179 350 177 613 443 786 796 94 193 145 368
168 587 15 135 15 3721 0 3856 -23 219 -74 394 -168 587 -268 546 -779 905
-1386 975 -59 6 -734 10 -1950 9 -1549 -1 -1878 -3 -1965 -15z m757 -1800
c382 -56 656 -267 827 -637 43 -90 102 -255 94 -262 -1 -2 -145 -31 -318 -64
-173 -34 -324 -63 -336 -66 -18 -4 -23 4 -38 53 -33 110 -106 241 -167 304
-81 83 -147 111 -269 116 -361 15 -570 -219 -635 -712 -33 -256 -29 -609 11
-838 40 -234 124 -428 232 -537 123 -123 246 -167 442 -158 159 7 296 51 433
139 l47 30 0 289 0 289 -340 0 -340 0 0 270 0 270 675 0 675 0 -1 -687 0 -688
-57 -45 c-110 -87 -304 -210 -425 -269 -232 -114 -439 -168 -682 -178 -171 -6
-290 5 -440 43 -214 54 -381 149 -541 309 -240 239 -372 539 -436 990 -21 143
-17 629 5 793 103 753 463 1158 1107 1247 133 18 352 18 477 -1z m3033 -655
c109 -12 272 -53 361 -89 249 -101 448 -297 553 -545 150 -355 168 -924 40
-1304 -119 -357 -359 -601 -704 -715 -144 -47 -266 -67 -460 -73 -571 -18
-979 195 -1194 625 -203 405 -203 1089 0 1494 108 215 294 399 498 493 245
114 566 154 906 114z"/>
<path d="M4902 4054 c-196 -52 -307 -178 -367 -417 -37 -148 -48 -289 -42
-540 7 -283 34 -423 110 -574 35 -68 124 -163 185 -196 173 -94 446 -69 604
55 92 72 173 249 205 450 24 152 24 544 -1 693 -54 326 -163 479 -377 530 -80
18 -246 18 -317 -1z"/>
</g>
</svg>
